<svg width="512" height="512" viewBox="0 0 512 512" fill="none" xmlns="http://www.w3.org/2000/svg">
  <defs>
    <linearGradient id="bg" x1="64" y1="48" x2="448" y2="464" gradientUnits="userSpaceOnUse">
      <stop stop-color="#191919"/>
      <stop offset="1" stop-color="#050505"/>
    </linearGradient>
    <linearGradient id="mark" x1="154" y1="126" x2="386" y2="378" gradientUnits="userSpaceOnUse">
      <stop stop-color="#FFFFFF"/>
      <stop offset="1" stop-color="#BDBDBD"/>
    </linearGradient>
    <clipPath id="dShapeClip">
      <path d="M156 126H248C336 126 394 184 394 256C394 328 336 386 248 386H156V126Z"/>
    </clipPath>
  </defs>

  <rect x="40" y="40" width="432" height="432" rx="108" fill="url(#bg)"/>
  <rect x="52" y="52" width="408" height="408" rx="96" stroke="#303030" stroke-width="10"/>
  <path d="M156 126H248C336 126 394 184 394 256C394 328 336 386 248 386H156V126Z" fill="#090909"/>
  <path d="M156 126H248C336 126 394 184 394 256C394 328 336 386 248 386H156V126Z" stroke="#454545" stroke-width="34" stroke-linejoin="round" clip-path="url(#dShapeClip)"/>
  <path d="M156 126H248C336 126 394 184 394 256C394 328 336 386 248 386H156V126Z" stroke="url(#mark)" stroke-width="14" stroke-linejoin="round"/>
  <path d="M198 172H246C304 172 342 210 342 256C342 302 304 340 246 340H198V172Z" stroke="#F4F4F4" stroke-width="10" stroke-linejoin="round"/>
</svg>
